<svg xmlns="http://www.w3.org/2000/svg" xmlns:xlink="http://www.w3.org/1999/xlink" version="1.1"
  enable-background="new 0 0 1000 1000" xml:space="preserve" width="1000" height="1250" style="">
  <rect id="backgroundrect" width="100%" height="100%" x="0" y="0" fill="none" stroke="none" />

  <g class="currentLayer" style="">
    <title>Layer 1</title>
    <path
      d="M791.461,337.39780238771436 c-19.813,-39.955 -11.767,-90.256 -62.09,-104.636 c-6.804,-17.007 -3.4210000000000003,-30.62 3.368,-44.602 c3.415,-7.033 -2.6390000000000002,-17.751 -39.546,-2.181 c-87.545,36.933 -103.726,75.295 -114.634,166.92 c-20.448,143.144 -56.234,86.908 -155.923,161.035 c-94.576,69.016 -74.127,145.7 -71.57,235.164 C200.256,618.7368023877144 478.872,490.9308023877144 420.082,347.7888023877144 c-33.229,-76.683 -132.918,-102.245 -194.265,-48.567 c-38.341,30.673000000000002 -15.336,69.015 23.005,43.454 c43.454,-35.785 99.688,-17.893 120.137,30.674 c30.673000000000002,74.127 -92.021,191.708 -109.913,260.723 c-20.449,69.016 30.674,189.152 125.249,189.152 h181.576 c0,0 8.623,0 7.098,-8.037 c-3.271,-17.239 -12.301,-25.512 -30.193,-27.749 c51.123,-46.01 48.565,23.006 51.123,35.786 h63.121 c0,0 10.265,0 5.174,-7.59 c-5.315,-7.924 -12.7,-14.137 -22.285,-17.972 c-7.6690000000000005,-127.806 63.901,-166.146 86.907,-242.83 c15.337,-56.234 -7.6690000000000005,-117.581 -25.562,-168.703 c26.943,-19.596 60.932,12.449 90.711,-34.331 C793.261,349.7628023877144 795.793,346.1348023877144 791.461,337.39780238771436 z"
      id="svg_1" class="selected" fill="#ffffff" fill-opacity="1" />
  </g>
</svg>