<svg xmlns="http://www.w3.org/2000/svg" width="32" height="40" style=""><rect id="backgroundrect" width="100%" height="100%" x="0" y="0" fill="none" stroke="none"/>
  <title>close@1000x-20</title>
  
<g class="currentLayer" style=""><title>Layer 1</title><g id="svg_1" class="selected" fill="#ffffff" fill-opacity="1">
    <path d="M29.92,5.07A3,3,0,0,0,29,3a3.06,3.06,0,0,0-4.23,0L16,11.77,7.22,3A3.06,3.06,0,0,0,3,3,3,3,0,0,0,3,7.23L11.77,16,3,24.81A3,3,0,1,0,7.19,29L16,20.24,24.78,29A3,3,0,0,0,29,24.78h0L20.24,16,29,7.19A3,3,0,0,0,29.92,5.07Z" id="svg_2" fill="#ffffff" fill-opacity="1"/>
  </g></g></svg>