<svg xmlns="http://www.w3.org/2000/svg" xmlns:xlink="http://www.w3.org/1999/xlink" version="1.1" x="0px" y="0px"
  viewBox="0 0 100 125" enable-background="new 0 0 100 100" xml:space="preserve">
  <path
    d="M34.422,45.081c3.17,0,5.739-2.57,5.739-5.739s-2.57-5.739-5.739-5.739c-3.17,0-5.739,2.57-5.739,5.739  S31.252,45.081,34.422,45.081z M65.578,45.081c3.17,0,5.739-2.57,5.739-5.739s-2.57-5.739-5.739-5.739s-5.739,2.57-5.739,5.739  S62.408,45.081,65.578,45.081z M27.043,57.379l-4.919,1.64c9.839,22.957,45.915,22.957,55.754,0l-4.919-1.64  C66.398,73.777,33.602,73.777,27.043,57.379z M50,92.635C25.403,92.635,7.365,74.597,7.365,50S25.403,7.365,50,7.365  S92.635,25.403,92.635,50S74.597,92.635,50,92.635z M50,99.194c27.877,0,49.194-21.318,49.194-49.194S77.877,0.806,50,0.806  S0.806,22.123,0.806,50S22.123,99.194,50,99.194z" />
  <text x="0" y="115" fill="#000000" font-size="5px" font-weight="bold"
    font-family="'Helvetica Neue', Helvetica, Arial-Unicode, Arial, Sans-serif">Created by Marco Galtarossa</text><text
    x="0" y="120" fill="#000000" font-size="5px" font-weight="bold"
    font-family="'Helvetica Neue', Helvetica, Arial-Unicode, Arial, Sans-serif">from the Noun Project</text>
</svg>