<?xml version="1.0" encoding="utf-8"?>
<!-- Generator: Adobe Illustrator 25.3.1, SVG Export Plug-In . SVG Version: 6.00 Build 0)  -->
<svg version="1.1" id="Layer_1" xmlns="http://www.w3.org/2000/svg" xmlns:xlink="http://www.w3.org/1999/xlink" x="0px" y="0px"
	 viewBox="0 0 100 125" style="enable-background:new 0 0 100 125;" xml:space="preserve">
<path d="M50,107C25.1,107,5,86.9,5,62s20.1-45,45-45s45,20.1,45,45C95,86.8,74.8,107,50,107z M50,22.3c-21.9,0-39.7,17.8-39.7,39.7
	s17.8,39.7,39.7,39.7S89.7,83.9,89.7,62l0,0C89.7,40.1,71.9,22.3,50,22.3z"/>
<circle cx="33.2" cy="53.5" r="5.4"/>
<circle cx="66.8" cy="53.5" r="5.4"/>
<path d="M33.2,86.9c-1.5,0-2.6-1.2-2.6-2.7c0-0.6,0.2-1.2,0.6-1.7c4.3-4.7,10.2-7.6,16.5-8.3c7-0.6,14,2.1,20.9,8c1,1,1,2.7,0,3.7
	c-0.9,0.9-2.4,1-3.4,0.3c-5.7-4.9-11.4-7.2-17-6.7c-4.9,0.5-9.5,2.8-12.9,6.4C34.7,86.5,34,86.9,33.2,86.9z"/>
</svg>
