<svg xmlns="http://www.w3.org/2000/svg" xmlns:xlink="http://www.w3.org/1999/xlink" version="1.1" x="0px" y="0px"
  viewBox="0 0 100 125" style="enable-background:new 0 0 100 100;" xml:space="preserve">
  <path
    d="M70.7,46.5c3.3-4.3,5.2-9.7,5.2-15.6C75.9,16.6,64.3,5,50,5S24.1,16.6,24.1,30.9c0,5.8,1.9,11.2,5.2,15.6  c-9.9,6.8-15.9,18-15.9,30.2V95h73.2V76.7C86.6,64.5,80.6,53.3,70.7,46.5z M50,11.1c10.9,0,19.8,8.9,19.8,19.8S60.9,50.8,50,50.8  s-19.8-8.9-19.8-19.8S39.1,11.1,50,11.1z M80.5,88.9h-61V76.7c0-10.5,5.3-20.1,14.1-25.7c4.5,3.7,10.2,5.9,16.4,5.9  c6.2,0,11.9-2.2,16.4-5.9c8.7,5.6,14.1,15.3,14.1,25.7V88.9z" />
  <text x="0" y="115" fill="#000000" font-size="5px" font-weight="bold"
    font-family="'Helvetica Neue', Helvetica, Arial-Unicode, Arial, Sans-serif">Created by Rafael Farias
    Leão</text><text x="0" y="120" fill="#000000" font-size="5px" font-weight="bold"
    font-family="'Helvetica Neue', Helvetica, Arial-Unicode, Arial, Sans-serif">from the Noun Project</text>
</svg>