<svg xmlns="http://www.w3.org/2000/svg" xmlns:xlink="http://www.w3.org/1999/xlink" version="1.0" x="0px" y="0px"
  viewBox="0 0 100 125" enable-background="new 0 0 100 100" xml:space="preserve">
  <g>
    <path fill="#000000"
      d="M49.99,48.803c9.595,0,17.401-7.806,17.401-17.401C67.392,21.807,59.585,14,49.99,14   c-9.595,0-17.402,7.807-17.402,17.401C32.588,40.997,40.395,48.803,49.99,48.803z" />
    <path fill="#000000"
      d="M82.035,84.797C81.926,67.22,67.593,52.954,49.99,52.954C32.32,52.954,17.944,67.33,17.944,85   c0,0.553,0.448,1,1,1h62.092c0.008,0.001,0.016,0,0.02,0c0.553,0,1-0.447,1-1C82.056,84.931,82.049,84.862,82.035,84.797z" />
  </g>
</svg>